<svg width="157" height="64" viewBox="0 0 157 64" fill="none" xmlns="http://www.w3.org/2000/svg">
<rect width="157" height="64" rx="8" fill="#FFF5F9"/>
<path d="M43.584 28.544V31.952H48.992V33.712H43.584V38H41.504V26.8H49.68V28.544H43.584ZM51.3433 29.456H53.3433V38H51.3433V29.456ZM52.3513 28.048C51.9886 28.048 51.6846 27.936 51.4393 27.712C51.1939 27.4773 51.0713 27.1893 51.0713 26.848C51.0713 26.5067 51.1939 26.224 51.4393 26C51.6846 25.7653 51.9886 25.648 52.3513 25.648C52.7139 25.648 53.0179 25.76 53.2633 25.984C53.5086 26.1973 53.6313 26.4693 53.6313 26.8C53.6313 27.152 53.5086 27.4507 53.2633 27.696C53.0286 27.9307 52.7246 28.048 52.3513 28.048ZM55.9683 26.128H57.9683V38H55.9683V26.128ZM66.1511 37.536C65.9165 37.728 65.6285 37.872 65.2871 37.968C64.9565 38.064 64.6045 38.112 64.2311 38.112C63.2925 38.112 62.5671 37.8667 62.0551 37.376C61.5431 36.8853 61.2871 36.1707 61.2871 35.232V31.12H59.8791V29.52H61.2871V27.568H63.2871V29.52H65.5751V31.12H63.2871V35.184C63.2871 35.6 63.3885 35.92 63.5911 36.144C63.7938 36.3573 64.0871 36.464 64.4711 36.464C64.9191 36.464 65.2925 36.3467 65.5911 36.112L66.1511 37.536ZM75.5471 33.776C75.5471 33.9147 75.5365 34.112 75.5151 34.368H68.8111C68.9285 34.9973 69.2325 35.4987 69.7231 35.872C70.2245 36.2347 70.8431 36.416 71.5791 36.416C72.5178 36.416 73.2911 36.1067 73.8991 35.488L74.9711 36.72C74.5871 37.1787 74.1018 37.5253 73.5151 37.76C72.9285 37.9947 72.2671 38.112 71.5311 38.112C70.5925 38.112 69.7658 37.9253 69.0511 37.552C68.3365 37.1787 67.7818 36.6613 67.3871 36C67.0031 35.328 66.8111 34.5707 66.8111 33.728C66.8111 32.896 66.9978 32.1493 67.3711 31.488C67.7551 30.816 68.2831 30.2933 68.9551 29.92C69.6271 29.5467 70.3845 29.36 71.2271 29.36C72.0591 29.36 72.8005 29.5467 73.4511 29.92C74.1125 30.2827 74.6245 30.8 74.9871 31.472C75.3605 32.1333 75.5471 32.9013 75.5471 33.776ZM71.2271 30.96C70.5871 30.96 70.0431 31.152 69.5951 31.536C69.1578 31.9093 68.8911 32.4107 68.7951 33.04H73.6431C73.5578 32.4213 73.2965 31.92 72.8591 31.536C72.4218 31.152 71.8778 30.96 71.2271 30.96ZM79.3723 30.704C79.9483 29.808 80.9616 29.36 82.4123 29.36V31.264C82.2416 31.232 82.0869 31.216 81.9483 31.216C81.1696 31.216 80.5616 31.4453 80.1243 31.904C79.6869 32.352 79.4683 33.0027 79.4683 33.856V38H77.4683V29.456H79.3723V30.704Z" fill="#F72585"/>
<path fill-rule="evenodd" clip-rule="evenodd" d="M112 25V27H108V25H112ZM102 25V31H98V25H102ZM112 33V39H108V33H112ZM102 37V39H98V37H102ZM114 23H106V29H114V23ZM104 23H96V33H104V23ZM114 31H106V41H114V31ZM104 35H96V41H104V35Z" fill="#F72585"/>
</svg>
