<svg width="24" height="24" viewBox="0 0 24 24" fill="none" xmlns="http://www.w3.org/2000/svg">
<rect width="24" height="24" fill="#E5E5E5"/>
<g id="Courses">
<rect width="1440" height="4767" transform="translate(-1008 -2179)" fill="white"/>
<g id="All Development Courses">
<g id="Button">
<rect x="-93" y="-20" width="157" height="64" rx="8" fill="#FFF5F9"/>
<g id="Action / dashboard">
<g id="Outlined / Action / dashboard">
<path id="&#240;&#159;&#148;&#185; Icon Color" fill-rule="evenodd" clip-rule="evenodd" d="M19 5V7H15V5H19ZM9 5V11H5V5H9ZM19 13V19H15V13H19ZM9 17V19H5V17H9ZM21 3H13V9H21V3ZM11 3H3V13H11V3ZM21 11H13V21H21V11ZM11 15H3V21H11V15Z" fill="#F72585"/>
</g>
</g>
</g>
</g>
</g>
</svg>
