<svg width="529" height="683" viewBox="0 0 529 683" fill="none" xmlns="http://www.w3.org/2000/svg">
<rect width="529" height="683" rx="8" fill="#E6E6E6"/>
<rect x="315" y="518" width="184" height="117" rx="8" fill="white"/>
<path d="M343 595L345.694 603.292H354.413L347.359 608.416L350.053 616.708L343 611.584L335.947 616.708L338.641 608.416L331.587 603.292H340.306L343 595Z" fill="#FAA307"/>
<path d="M375 595L377.694 603.292H386.413L379.359 608.416L382.053 616.708L375 611.584L367.947 616.708L370.641 608.416L363.587 603.292H372.306L375 595Z" fill="#FAA307"/>
<path d="M407 595L409.694 603.292H418.413L411.359 608.416L414.053 616.708L407 611.584L399.947 616.708L402.641 608.416L395.587 603.292H404.306L407 595Z" fill="#FAA307"/>
<path d="M439 595L441.694 603.292H450.413L443.359 608.416L446.053 616.708L439 611.584L431.947 616.708L434.641 608.416L427.587 603.292H436.306L439 595Z" fill="#FAA307"/>
<path d="M471 595L473.694 603.292H482.413L475.359 608.416L478.053 616.708L471 611.584L463.947 616.708L466.641 608.416L459.587 603.292H468.306L471 595Z" fill="#FAA307"/>
<path d="M382.68 558.264C381.176 558.264 379.92 558.032 378.912 557.568C377.904 557.088 377.136 556.472 376.608 555.72C376.096 554.952 375.824 554.128 375.792 553.248C375.792 553.104 375.84 552.984 375.936 552.888C376.032 552.792 376.152 552.744 376.296 552.744H379.512C379.72 552.744 379.88 552.784 379.992 552.864C380.12 552.944 380.216 553.056 380.28 553.2C380.424 553.568 380.616 553.872 380.856 554.112C381.096 554.352 381.368 554.528 381.672 554.64C381.976 554.752 382.32 554.808 382.704 554.808C383.152 554.808 383.568 554.712 383.952 554.52C384.336 554.328 384.64 554.048 384.864 553.68C385.104 553.296 385.224 552.84 385.224 552.312C385.224 551.832 385.112 551.416 384.888 551.064C384.68 550.712 384.384 550.432 384 550.224C383.632 550.016 383.2 549.912 382.704 549.912C382.32 549.912 382.008 549.96 381.768 550.056C381.528 550.136 381.328 550.24 381.168 550.368C381.008 550.496 380.864 550.608 380.736 550.704C380.608 550.784 380.464 550.824 380.304 550.824H377.16C377.016 550.824 376.888 550.776 376.776 550.68C376.68 550.568 376.632 550.44 376.632 550.296L377.496 541.92C377.528 541.68 377.616 541.504 377.76 541.392C377.904 541.264 378.08 541.2 378.288 541.2H387.912C388.088 541.2 388.232 541.256 388.344 541.368C388.472 541.48 388.536 541.624 388.536 541.8V544.056C388.536 544.232 388.472 544.376 388.344 544.488C388.232 544.6 388.088 544.656 387.912 544.656H380.952L380.64 547.752C380.992 547.528 381.4 547.336 381.864 547.176C382.344 547.016 383 546.936 383.832 546.936C384.584 546.936 385.304 547.072 385.992 547.344C386.696 547.6 387.32 547.968 387.864 548.448C388.424 548.928 388.856 549.504 389.16 550.176C389.48 550.832 389.64 551.576 389.64 552.408C389.64 553.544 389.36 554.552 388.8 555.432C388.256 556.312 387.464 557.008 386.424 557.52C385.384 558.016 384.136 558.264 382.68 558.264ZM398.652 558.24C397.5 558.24 396.5 558.08 395.652 557.76C394.82 557.424 394.124 556.968 393.564 556.392C393.004 555.816 392.58 555.144 392.292 554.376C392.004 553.608 391.836 552.784 391.788 551.904C391.772 551.472 391.756 550.984 391.74 550.44C391.74 549.88 391.74 549.32 391.74 548.76C391.756 548.184 391.772 547.672 391.788 547.224C391.836 546.344 392.004 545.528 392.292 544.776C392.596 544.008 393.028 543.344 393.588 542.784C394.164 542.208 394.868 541.76 395.7 541.44C396.548 541.12 397.532 540.96 398.652 540.96C399.788 540.96 400.772 541.12 401.604 541.44C402.452 541.76 403.156 542.208 403.716 542.784C404.276 543.344 404.708 544.008 405.012 544.776C405.316 545.528 405.492 546.344 405.54 547.224C405.556 547.672 405.564 548.184 405.564 548.76C405.58 549.32 405.58 549.88 405.564 550.44C405.564 550.984 405.556 551.472 405.54 551.904C405.492 552.784 405.316 553.608 405.012 554.376C404.724 555.144 404.3 555.816 403.74 556.392C403.196 556.968 402.5 557.424 401.652 557.76C400.82 558.08 399.82 558.24 398.652 558.24ZM398.652 554.76C399.484 554.76 400.084 554.496 400.452 553.968C400.836 553.424 401.036 552.696 401.052 551.784C401.084 551.32 401.1 550.832 401.1 550.32C401.116 549.808 401.116 549.296 401.1 548.784C401.1 548.272 401.084 547.8 401.052 547.368C401.036 546.488 400.836 545.776 400.452 545.232C400.084 544.688 399.484 544.408 398.652 544.392C397.836 544.408 397.236 544.688 396.852 545.232C396.484 545.776 396.284 546.488 396.252 547.368C396.252 547.8 396.244 548.272 396.228 548.784C396.228 549.296 396.228 549.808 396.228 550.32C396.244 550.832 396.252 551.32 396.252 551.784C396.284 552.696 396.492 553.424 396.876 553.968C397.26 554.496 397.852 554.76 398.652 554.76ZM414.964 558.24C413.812 558.24 412.812 558.08 411.964 557.76C411.132 557.424 410.436 556.968 409.876 556.392C409.316 555.816 408.892 555.144 408.604 554.376C408.316 553.608 408.148 552.784 408.1 551.904C408.084 551.472 408.068 550.984 408.052 550.44C408.052 549.88 408.052 549.32 408.052 548.76C408.068 548.184 408.084 547.672 408.1 547.224C408.148 546.344 408.316 545.528 408.604 544.776C408.908 544.008 409.34 543.344 409.9 542.784C410.476 542.208 411.18 541.76 412.012 541.44C412.86 541.12 413.844 540.96 414.964 540.96C416.1 540.96 417.084 541.12 417.916 541.44C418.764 541.76 419.468 542.208 420.028 542.784C420.588 543.344 421.02 544.008 421.324 544.776C421.628 545.528 421.804 546.344 421.852 547.224C421.868 547.672 421.876 548.184 421.876 548.76C421.892 549.32 421.892 549.88 421.876 550.44C421.876 550.984 421.868 551.472 421.852 551.904C421.804 552.784 421.628 553.608 421.324 554.376C421.036 555.144 420.612 555.816 420.052 556.392C419.508 556.968 418.812 557.424 417.964 557.76C417.132 558.08 416.132 558.24 414.964 558.24ZM414.964 554.76C415.796 554.76 416.396 554.496 416.764 553.968C417.148 553.424 417.348 552.696 417.364 551.784C417.396 551.32 417.412 550.832 417.412 550.32C417.428 549.808 417.428 549.296 417.412 548.784C417.412 548.272 417.396 547.8 417.364 547.368C417.348 546.488 417.148 545.776 416.764 545.232C416.396 544.688 415.796 544.408 414.964 544.392C414.148 544.408 413.548 544.688 413.164 545.232C412.796 545.776 412.596 546.488 412.564 547.368C412.564 547.8 412.556 548.272 412.54 548.784C412.54 549.296 412.54 549.808 412.54 550.32C412.556 550.832 412.564 551.32 412.564 551.784C412.596 552.696 412.804 553.424 413.188 553.968C413.572 554.496 414.164 554.76 414.964 554.76ZM429.453 557.208C429.277 557.208 429.133 557.152 429.021 557.04C428.909 556.912 428.853 556.768 428.853 556.608V552.216H424.581C424.405 552.216 424.253 552.16 424.125 552.048C424.013 551.936 423.957 551.792 423.957 551.616V549.864C423.957 549.688 424.013 549.544 424.125 549.432C424.253 549.304 424.405 549.24 424.581 549.24H428.853V544.992C428.853 544.816 428.909 544.672 429.021 544.56C429.133 544.448 429.277 544.392 429.453 544.392H431.421C431.581 544.392 431.717 544.448 431.829 544.56C431.957 544.672 432.021 544.816 432.021 544.992V549.24H436.269C436.445 549.24 436.589 549.304 436.701 549.432C436.813 549.544 436.869 549.688 436.869 549.864V551.616C436.869 551.792 436.813 551.936 436.701 552.048C436.589 552.16 436.445 552.216 436.269 552.216H432.021V556.608C432.021 556.768 431.957 556.912 431.829 557.04C431.717 557.152 431.581 557.208 431.421 557.208H429.453Z" fill="#1C3554"/>
<path d="M361.096 584C360.989 584 360.899 583.963 360.824 583.888C360.749 583.813 360.712 583.723 360.712 583.616V574.768H357.752C357.645 574.768 357.555 574.731 357.48 574.656C357.405 574.581 357.368 574.491 357.368 574.384V573.2C357.368 573.083 357.4 572.987 357.464 572.912C357.539 572.837 357.635 572.8 357.752 572.8H365.912C366.029 572.8 366.125 572.837 366.2 572.912C366.275 572.987 366.312 573.083 366.312 573.2V574.384C366.312 574.491 366.275 574.581 366.2 574.656C366.125 574.731 366.029 574.768 365.912 574.768H362.968V583.616C362.968 583.723 362.931 583.813 362.856 583.888C362.781 583.963 362.685 584 362.568 584H361.096ZM369.955 584.16C368.707 584.16 367.741 583.84 367.059 583.2C366.376 582.549 366.008 581.664 365.955 580.544L365.939 579.84L365.955 579.136C366.008 578.027 366.381 577.147 367.075 576.496C367.768 575.845 368.728 575.52 369.955 575.52C371.181 575.52 372.141 575.845 372.835 576.496C373.528 577.147 373.901 578.027 373.955 579.136C373.965 579.264 373.971 579.499 373.971 579.84C373.971 580.181 373.965 580.416 373.955 580.544C373.901 581.664 373.533 582.549 372.851 583.2C372.168 583.84 371.203 584.16 369.955 584.16ZM369.955 582.576C370.52 582.576 370.957 582.4 371.267 582.048C371.576 581.685 371.747 581.157 371.779 580.464C371.789 580.357 371.795 580.149 371.795 579.84C371.795 579.531 371.789 579.323 371.779 579.216C371.747 578.523 371.576 578 371.267 577.648C370.957 577.285 370.52 577.104 369.955 577.104C369.389 577.104 368.952 577.285 368.643 577.648C368.333 578 368.163 578.523 368.131 579.216L368.115 579.84L368.131 580.464C368.163 581.157 368.333 581.685 368.643 582.048C368.952 582.4 369.389 582.576 369.955 582.576ZM379.441 584C378.47 584 377.74 583.749 377.249 583.248C376.769 582.736 376.529 581.989 376.529 581.008V577.376H375.265C375.158 577.376 375.068 577.339 374.993 577.264C374.918 577.179 374.881 577.083 374.881 576.976V576.064C374.881 575.957 374.918 575.867 374.993 575.792C375.068 575.717 375.158 575.68 375.265 575.68H376.529V573.024C376.529 572.907 376.566 572.816 376.641 572.752C376.716 572.677 376.806 572.64 376.913 572.64H378.209C378.326 572.64 378.417 572.677 378.481 572.752C378.556 572.816 378.593 572.907 378.593 573.024V575.68H380.593C380.71 575.68 380.801 575.717 380.865 575.792C380.94 575.856 380.977 575.947 380.977 576.064V576.976C380.977 577.093 380.94 577.189 380.865 577.264C380.79 577.339 380.7 577.376 380.593 577.376H378.593V580.848C378.593 581.307 378.673 581.653 378.833 581.888C378.993 582.123 379.26 582.24 379.633 582.24H380.737C380.844 582.24 380.934 582.277 381.009 582.352C381.084 582.427 381.121 582.517 381.121 582.624V583.616C381.121 583.723 381.084 583.813 381.009 583.888C380.945 583.963 380.854 584 380.737 584H379.441ZM384.956 584.16C384.412 584.16 383.911 584.053 383.452 583.84C383.004 583.616 382.647 583.317 382.38 582.944C382.124 582.571 381.996 582.16 381.996 581.712C381.996 580.987 382.29 580.4 382.876 579.952C383.463 579.504 384.268 579.2 385.292 579.04L387.484 578.72V578.384C387.484 577.915 387.367 577.563 387.132 577.328C386.898 577.093 386.519 576.976 385.996 576.976C385.644 576.976 385.356 577.045 385.132 577.184C384.919 577.312 384.748 577.44 384.62 577.568C384.492 577.707 384.407 577.797 384.364 577.84C384.322 577.968 384.242 578.032 384.124 578.032H382.892C382.796 578.032 382.711 578 382.636 577.936C382.572 577.872 382.54 577.787 382.54 577.68C382.551 577.413 382.679 577.109 382.924 576.768C383.18 576.427 383.57 576.133 384.092 575.888C384.615 575.643 385.255 575.52 386.012 575.52C387.271 575.52 388.188 575.803 388.764 576.368C389.34 576.933 389.628 577.675 389.628 578.592V583.616C389.628 583.723 389.591 583.813 389.516 583.888C389.452 583.963 389.362 584 389.244 584H387.948C387.842 584 387.751 583.963 387.676 583.888C387.602 583.813 387.564 583.723 387.564 583.616V582.992C387.33 583.333 386.994 583.616 386.556 583.84C386.13 584.053 385.596 584.16 384.956 584.16ZM385.5 582.64C386.087 582.64 386.567 582.448 386.94 582.064C387.314 581.68 387.5 581.12 387.5 580.384V580.048L385.9 580.304C385.282 580.4 384.812 580.555 384.492 580.768C384.183 580.981 384.028 581.243 384.028 581.552C384.028 581.893 384.172 582.16 384.46 582.352C384.748 582.544 385.095 582.64 385.5 582.64ZM392.081 584C391.974 584 391.884 583.963 391.809 583.888C391.734 583.813 391.697 583.723 391.697 583.616V573.024C391.697 572.907 391.734 572.816 391.809 572.752C391.884 572.677 391.974 572.64 392.081 572.64H393.409C393.526 572.64 393.617 572.677 393.681 572.752C393.756 572.816 393.793 572.907 393.793 573.024V583.616C393.793 583.723 393.756 583.813 393.681 583.888C393.617 583.963 393.526 584 393.409 584H392.081ZM400.148 584C400.041 584 399.95 583.963 399.876 583.888C399.801 583.813 399.764 583.723 399.764 583.616V573.2C399.764 573.083 399.796 572.987 399.86 572.912C399.934 572.837 400.03 572.8 400.148 572.8H404.292C405.593 572.8 406.612 573.104 407.348 573.712C408.094 574.32 408.468 575.184 408.468 576.304C408.468 577.083 408.276 577.739 407.892 578.272C407.518 578.795 406.996 579.173 406.324 579.408L408.66 583.488C408.692 583.552 408.708 583.611 408.708 583.664C408.708 583.76 408.67 583.84 408.596 583.904C408.532 583.968 408.457 584 408.372 584H406.916C406.745 584 406.612 583.963 406.516 583.888C406.43 583.813 406.35 583.707 406.276 583.568L404.212 579.776H401.988V583.616C401.988 583.723 401.95 583.813 401.876 583.888C401.812 583.963 401.721 584 401.604 584H400.148ZM404.244 577.968C404.884 577.968 405.364 577.824 405.684 577.536C406.014 577.248 406.18 576.832 406.18 576.288C406.18 575.744 406.014 575.323 405.684 575.024C405.364 574.725 404.884 574.576 404.244 574.576H401.988V577.968H404.244ZM413.828 584.16C412.644 584.16 411.7 583.819 410.996 583.136C410.302 582.443 409.934 581.472 409.892 580.224L409.876 579.824L409.892 579.424C409.945 578.208 410.318 577.253 411.012 576.56C411.716 575.867 412.654 575.52 413.828 575.52C415.086 575.52 416.057 575.904 416.74 576.672C417.433 577.44 417.78 578.464 417.78 579.744V580.08C417.78 580.187 417.742 580.277 417.668 580.352C417.593 580.427 417.497 580.464 417.38 580.464H412.068V580.592C412.089 581.179 412.249 581.675 412.548 582.08C412.857 582.475 413.278 582.672 413.812 582.672C414.441 582.672 414.948 582.427 415.332 581.936C415.428 581.819 415.502 581.744 415.556 581.712C415.62 581.68 415.71 581.664 415.828 581.664H417.204C417.3 581.664 417.38 581.696 417.444 581.76C417.518 581.813 417.556 581.883 417.556 581.968C417.556 582.224 417.401 582.528 417.092 582.88C416.793 583.221 416.361 583.52 415.796 583.776C415.23 584.032 414.574 584.16 413.828 584.16ZM415.604 579.12V579.072C415.604 578.443 415.444 577.936 415.124 577.552C414.814 577.168 414.382 576.976 413.828 576.976C413.273 576.976 412.841 577.168 412.532 577.552C412.222 577.936 412.068 578.443 412.068 579.072V579.12H415.604ZM422.125 584C421.965 584 421.842 583.968 421.757 583.904C421.672 583.829 421.602 583.728 421.549 583.6L418.557 576.176L418.525 576.032C418.525 575.936 418.557 575.856 418.621 575.792C418.696 575.717 418.781 575.68 418.877 575.68H420.173C420.376 575.68 420.514 575.781 420.589 575.984L422.717 581.6L424.845 575.984C424.877 575.909 424.925 575.84 424.989 575.776C425.064 575.712 425.154 575.68 425.261 575.68H426.573C426.658 575.68 426.733 575.717 426.797 575.792C426.872 575.856 426.909 575.936 426.909 576.032C426.909 576.096 426.904 576.144 426.893 576.176L423.885 583.6C423.832 583.728 423.762 583.829 423.677 583.904C423.592 583.968 423.469 584 423.309 584H422.125ZM428.689 574.304C428.582 574.304 428.491 574.267 428.417 574.192C428.342 574.117 428.305 574.027 428.305 573.92V572.768C428.305 572.661 428.342 572.571 428.417 572.496C428.491 572.421 428.582 572.384 428.689 572.384H430.145C430.251 572.384 430.342 572.421 430.417 572.496C430.502 572.571 430.545 572.661 430.545 572.768V573.92C430.545 574.027 430.507 574.117 430.433 574.192C430.358 574.267 430.262 574.304 430.145 574.304H428.689ZM428.753 584C428.646 584 428.555 583.963 428.481 583.888C428.406 583.813 428.368 583.723 428.368 583.616V576.064C428.368 575.957 428.406 575.867 428.481 575.792C428.555 575.717 428.646 575.68 428.753 575.68H430.081C430.198 575.68 430.289 575.717 430.353 575.792C430.427 575.856 430.465 575.947 430.465 576.064V583.616C430.465 583.723 430.427 583.813 430.353 583.888C430.289 583.963 430.198 584 430.081 584H428.753ZM436.171 584.16C434.987 584.16 434.043 583.819 433.339 583.136C432.646 582.443 432.278 581.472 432.235 580.224L432.219 579.824L432.235 579.424C432.289 578.208 432.662 577.253 433.355 576.56C434.059 575.867 434.998 575.52 436.171 575.52C437.43 575.52 438.401 575.904 439.083 576.672C439.777 577.44 440.123 578.464 440.123 579.744V580.08C440.123 580.187 440.086 580.277 440.011 580.352C439.937 580.427 439.841 580.464 439.723 580.464H434.411V580.592C434.433 581.179 434.593 581.675 434.891 582.08C435.201 582.475 435.622 582.672 436.155 582.672C436.785 582.672 437.291 582.427 437.675 581.936C437.771 581.819 437.846 581.744 437.899 581.712C437.963 581.68 438.054 581.664 438.171 581.664H439.547C439.643 581.664 439.723 581.696 439.787 581.76C439.862 581.813 439.899 581.883 439.899 581.968C439.899 582.224 439.745 582.528 439.435 582.88C439.137 583.221 438.705 583.52 438.139 583.776C437.574 584.032 436.918 584.16 436.171 584.16ZM437.947 579.12V579.072C437.947 578.443 437.787 577.936 437.467 577.552C437.158 577.168 436.726 576.976 436.171 576.976C435.617 576.976 435.185 577.168 434.875 577.552C434.566 577.936 434.411 578.443 434.411 579.072V579.12H437.947ZM443.859 584C443.721 584 443.609 583.968 443.523 583.904C443.449 583.829 443.385 583.728 443.331 583.6L441.043 576.176C441.033 576.144 441.027 576.096 441.027 576.032C441.027 575.936 441.059 575.856 441.123 575.792C441.198 575.717 441.278 575.68 441.363 575.68H442.547C442.665 575.68 442.761 575.712 442.835 575.776C442.91 575.84 442.958 575.909 442.979 575.984L444.547 581.28L446.211 576.032C446.243 575.936 446.297 575.856 446.371 575.792C446.457 575.717 446.563 575.68 446.691 575.68H447.491C447.619 575.68 447.721 575.717 447.795 575.792C447.881 575.856 447.939 575.936 447.971 576.032L449.635 581.28L451.203 575.984C451.214 575.909 451.257 575.84 451.331 575.776C451.417 575.712 451.513 575.68 451.619 575.68H452.803C452.899 575.68 452.979 575.717 453.043 575.792C453.118 575.856 453.155 575.936 453.155 576.032L453.123 576.176L450.835 583.6C450.793 583.728 450.729 583.829 450.643 583.904C450.569 583.968 450.462 584 450.323 584H449.283C449.006 584 448.83 583.867 448.755 583.6L447.091 578.544L445.427 583.6C445.342 583.867 445.161 584 444.883 584H443.859Z" fill="#1C3554"/>
<rect x="47" y="396.364" width="64" height="64" rx="8" transform="rotate(-19.5 47 396.364)" fill="#021934"/>
<path fill-rule="evenodd" clip-rule="evenodd" d="M89.3728 398.332C87.1894 399.105 85.8741 399.864 84.5404 401.225C84.0466 401.729 83.6108 402.279 83.2359 402.874C82.5982 402.664 81.9412 402.518 81.2683 402.438C79.3355 402.207 77.755 402.446 75.65 403.192C70.012 405.188 67.5693 411.31 69.7177 417.377C71.3402 421.959 75.4622 425.48 81.7362 428.075C85.0294 429.437 89.0057 430.531 91.7084 430.905L93.2547 431.119L94.3218 429.979C96.1869 427.988 98.5887 424.635 100.291 421.505C103.534 415.54 104.521 410.209 102.899 405.627C100.773 399.625 94.9686 396.377 89.3728 398.332ZM99.8822 406.695C101.153 410.285 100.329 414.734 97.4795 419.976C95.9259 422.834 93.7207 425.921 92.0517 427.722C89.6214 427.372 85.965 426.361 82.9591 425.118C77.4459 422.838 74.0053 419.899 72.7342 416.309C71.1468 411.826 72.8406 407.581 76.7181 406.208C78.3919 405.615 79.4935 405.449 80.8884 405.615C81.7124 405.714 82.4942 405.952 83.2332 406.335L84.7622 407.125L85.4393 405.543C85.7771 404.753 86.24 404.062 86.8259 403.465C87.7784 402.493 88.6821 401.971 90.4348 401.351C94.27 400.011 98.3169 402.275 99.8822 406.695Z" fill="white"/>
<rect x="473.027" y="292" width="64" height="64" rx="8" transform="rotate(29 473.027 292)" fill="#F72585"/>
<path fill-rule="evenodd" clip-rule="evenodd" d="M468.583 340.353C468.007 338.343 468.729 336.164 470.57 333.8C469.308 331.083 469.094 328.798 470.108 326.969C471.122 325.14 473.173 324.11 476.146 323.74C477.175 320.927 478.64 319.16 480.65 318.583C482.66 318.007 484.839 318.73 487.203 320.57C489.92 319.308 492.205 319.094 494.034 320.108C495.863 321.122 496.893 323.174 497.263 326.146C500.076 327.176 501.843 328.64 502.419 330.65C502.996 332.661 502.273 334.839 500.433 337.203C501.695 339.92 501.908 342.205 500.895 344.034C499.881 345.863 497.829 346.893 494.857 347.263C493.827 350.076 492.363 351.843 490.353 352.42C488.342 352.996 486.164 352.274 483.8 350.433C481.083 351.695 478.798 351.909 476.969 350.895C475.14 349.881 474.11 347.83 473.74 344.857C470.927 343.828 469.16 342.363 468.583 340.353ZM475.699 342.138C476.334 342.331 476.784 342.897 476.83 343.56C477.007 346.147 477.635 347.606 478.52 348.096C479.405 348.587 480.975 348.347 483.263 347.126C483.849 346.813 484.567 346.895 485.068 347.331C487.022 349.036 488.498 349.623 489.47 349.344C490.443 349.065 491.383 347.785 492.138 345.304C492.331 344.669 492.897 344.219 493.56 344.173C496.147 343.996 497.605 343.368 498.096 342.483C498.586 341.598 498.347 340.028 497.125 337.74C496.813 337.154 496.894 336.436 497.331 335.935C499.036 333.981 499.622 332.505 499.343 331.532C499.065 330.56 497.785 329.62 495.304 328.865C494.668 328.672 494.218 328.106 494.173 327.443C493.996 324.856 493.367 323.398 492.483 322.907C491.598 322.417 490.028 322.656 487.74 323.878C487.154 324.19 486.436 324.108 485.935 323.672C483.98 321.967 482.505 321.381 481.532 321.659C480.56 321.938 479.619 323.218 478.865 325.699C478.671 326.335 478.106 326.785 477.443 326.83C474.856 327.007 473.397 327.635 472.907 328.52C472.416 329.405 472.656 330.975 473.877 333.263C474.19 333.849 474.108 334.567 473.672 335.068C471.967 337.023 471.38 338.498 471.659 339.471C471.938 340.443 473.218 341.384 475.699 342.138ZM492.985 332.868L483.647 335.546L482.217 330.558L479.141 331.44L481.454 339.504L493.867 335.944L492.985 332.868Z" fill="#FFF5F9"/>
<rect x="71" y="70.9749" width="64" height="64" rx="8" transform="rotate(-22 71 70.9749)" fill="#4586D6"/>
<path fill-rule="evenodd" clip-rule="evenodd" d="M121.843 81.4947C119.41 75.4729 114.401 72.635 109.597 73.1162C109.279 72.7765 108.882 72.5017 108.421 72.3227C106.846 71.7111 105.066 72.43 104.358 73.9643C104.151 74.4124 104.056 74.8849 104.063 75.3493C100.265 78.3367 98.6341 83.8468 101.074 89.8859C102.653 93.7932 102.75 96.301 101.932 98.4768C101.796 98.8406 101.381 99.7152 101.099 100.308L101.099 100.308C100.966 100.588 100.863 100.805 100.834 100.875L100.582 101.481L102.626 106.54L111.657 102.891C112.599 104.343 113.88 105.052 115.807 105.37C118.178 105.763 120.569 104.797 122.002 102.868C123.029 101.484 123.427 99.8348 123.208 98.2239L132.296 94.5524L130.252 89.4935L129.649 89.2329C129.586 89.2055 129.371 89.1241 129.089 89.0177L129.088 89.0174L129.088 89.0172C128.475 88.786 127.551 88.4367 127.194 88.2664C125.091 87.2619 123.416 85.3883 121.843 81.4947ZM120.037 99.5052L114.759 101.638C115.126 101.943 115.602 102.093 116.329 102.213C117.517 102.41 118.715 101.926 119.433 100.96C119.765 100.512 119.966 100.016 120.037 99.5052ZM125.815 91.154C126.265 91.3688 127.186 91.7218 127.793 91.9502L128.13 92.7842L104.394 102.374L104.057 101.541C104.334 100.961 104.753 100.067 104.928 99.602C106.038 96.6454 105.91 93.3124 104.041 88.6871C101.775 83.0794 103.913 78.4063 107.87 76.8077C111.815 75.2135 116.617 77.1025 118.876 82.6934C120.739 87.3038 122.962 89.7916 125.815 91.154Z" fill="white"/>
</svg>
