<svg width="320" height="33" viewBox="0 0 320 33" fill="none" xmlns="http://www.w3.org/2000/svg">
<path fill-rule="evenodd" clip-rule="evenodd" d="M19.7071 21.2929L18.2929 22.7071L11.5858 16L18.2929 9.29291L19.7071 10.7071L14.4142 16L19.7071 21.2929Z" fill="#E6E6E6"/>
<rect x="48" y="1" width="32" height="32" rx="4" fill="#F72585"/>
<path d="M66.0291 10.8V22H63.9491V12.544H61.5811V10.8H66.0291Z" fill="white"/>
<path d="M116.16 20.24V22H107.904V20.608L112.352 16.384C112.853 15.904 113.189 15.488 113.36 15.136C113.541 14.7733 113.632 14.416 113.632 14.064C113.632 13.5413 113.456 13.1413 113.104 12.864C112.752 12.5867 112.234 12.448 111.552 12.448C110.41 12.448 109.536 12.8373 108.928 13.616L107.472 12.496C107.909 11.9093 108.496 11.456 109.232 11.136C109.978 10.8053 110.81 10.64 111.728 10.64C112.944 10.64 113.914 10.928 114.64 11.504C115.365 12.08 115.728 12.864 115.728 13.856C115.728 14.464 115.6 15.0347 115.344 15.568C115.088 16.1013 114.597 16.7093 113.872 17.392L110.88 20.24H116.16Z" fill="#CCCCCC"/>
<path d="M160.816 15.424C161.85 15.552 162.64 15.904 163.184 16.48C163.728 17.056 164 17.776 164 18.64C164 19.2907 163.834 19.8827 163.504 20.416C163.173 20.9493 162.672 21.376 162 21.696C161.338 22.0053 160.528 22.16 159.568 22.16C158.768 22.16 157.994 22.048 157.248 21.824C156.512 21.5893 155.882 21.2693 155.36 20.864L156.256 19.248C156.661 19.5893 157.152 19.8613 157.728 20.064C158.314 20.256 158.917 20.352 159.536 20.352C160.272 20.352 160.848 20.2027 161.264 19.904C161.69 19.5947 161.904 19.1787 161.904 18.656C161.904 18.1333 161.701 17.728 161.296 17.44C160.901 17.1413 160.293 16.992 159.472 16.992H158.448V15.568L160.992 12.544H155.904V10.8H163.536V12.192L160.816 15.424Z" fill="#CCCCCC"/>
<path d="M213.758 19.456H211.774V22H209.758V19.456H203.614V18.016L209.134 10.8H211.358L206.158 17.696H209.822V15.44H211.774V17.696H213.758V19.456Z" fill="#CCCCCC"/>
<path d="M255.536 15.136C257.115 15.136 258.283 15.4453 259.04 16.064C259.797 16.672 260.176 17.504 260.176 18.56C260.176 19.232 260.011 19.84 259.68 20.384C259.349 20.928 258.853 21.36 258.192 21.68C257.531 22 256.715 22.16 255.744 22.16C254.944 22.16 254.171 22.048 253.424 21.824C252.677 21.5893 252.048 21.2693 251.536 20.864L252.416 19.248C252.832 19.5893 253.328 19.8613 253.904 20.064C254.491 20.256 255.093 20.352 255.712 20.352C256.448 20.352 257.024 20.2027 257.44 19.904C257.867 19.5947 258.08 19.1733 258.08 18.64C258.08 18.064 257.851 17.632 257.392 17.344C256.944 17.0453 256.171 16.896 255.072 16.896H252.368L252.944 10.8H259.52V12.544H254.704L254.464 15.136H255.536Z" fill="#CCCCCC"/>
<path fill-rule="evenodd" clip-rule="evenodd" d="M305.586 16L300.293 10.7071L301.707 9.29291L308.414 16L301.707 22.7071L300.293 21.2929L305.586 16Z" fill="#F72585"/>
</svg>
